<?xml version="1.0" encoding="UTF-8"?>
<svg version="1.1" xmlns="http://www.w3.org/2000/svg" width="714" height="174">
<path d="M0 0 C-0.58913553 3.97510033 -1.82045195 6.80697025 -3.8515625 10.26171875 C-4.44775391 11.28458984 -5.04394531 12.30746094 -5.65820312 13.36132812 C-6.30724609 14.45896484 -6.95628906 15.55660156 -7.625 16.6875 C-8.30478918 17.84916922 -8.98381248 19.01128693 -9.66210938 20.17382812 C-11.07158303 22.58817446 -12.48432987 25.00055922 -13.89941406 27.41162109 C-17.13055521 32.92318583 -20.31272995 38.4629938 -23.5 44 C-24.74976947 46.16679965 -25.99977024 48.3334659 -27.25 50.5 C-27.86875 51.5725 -28.4875 52.645 -29.125 53.75 C-31 57 -32.875 60.25 -34.75 63.5 C-35.3692334 64.57338623 -35.9884668 65.64677246 -36.62646484 66.75268555 C-37.87141282 68.91049803 -39.1165289 71.06821353 -40.36181641 73.22583008 C-43.56552651 78.77716592 -46.7659363 84.33036541 -49.9609375 89.88671875 C-53.09011104 95.32845622 -56.23418938 100.76139426 -59.3828125 106.19189453 C-60.81534104 108.67935577 -62.22488556 111.17780717 -63.625 113.68359375 C-68.635014 122.54161934 -74.44394372 131.44173467 -84.703125 134.6015625 C-92.96505319 136.03475412 -100.41721223 135.56837071 -108 132 C-107.40482565 128.0285883 -106.16709342 125.12521442 -104.19140625 121.640625 C-103.61463135 120.61654541 -103.03785645 119.59246582 -102.44360352 118.53735352 C-101.51245728 116.91011353 -101.51245728 116.91011353 -100.5625 115.25 C-99.60525024 113.55991821 -99.60525024 113.55991821 -98.62866211 111.83569336 C-94.38154264 104.35796409 -90.05830489 96.92785422 -85.671875 89.53125 C-82.33998053 83.90132079 -79.07857128 78.2307813 -75.8125 72.5625 C-75.17521973 71.45672607 -74.53793945 70.35095215 -73.88134766 69.21166992 C-71.9203862 65.8080747 -69.96011785 62.40408111 -68 59 C-63.63042106 51.41290313 -59.25742373 43.827809 -54.87597656 36.24755859 C-53.59794284 34.03511656 -52.32130595 31.82186717 -51.04589844 29.60791016 C-49.13879989 26.29875685 -47.22626721 22.99280005 -45.3125 19.6875 C-44.7362085 18.68509277 -44.15991699 17.68268555 -43.56616211 16.64990234 C-36.53267295 4.5341703 -36.53267295 4.5341703 -30 0.75 C-29.154375 0.24984375 -28.30875 -0.2503125 -27.4375 -0.765625 C-18.93991889 -5.06888723 -8.38682852 -3.94674283 0 0 Z " fill="#FDFDFD" transform="translate(235,22)"/>
<path d="M0 0 C9.43054869 6.71380122 13.78342709 15.43839587 16.546875 26.4921875 C16.546875 32.1021875 16.546875 37.7121875 16.546875 43.4921875 C-11.668125 43.9871875 -11.668125 43.9871875 -40.453125 44.4921875 C-35.45991629 52.81792025 -35.45991629 52.81792025 -27.453125 56.4921875 C-21.33701927 57.66796499 -17.43281584 56.6690076 -12.140625 53.4921875 C-3.61082476 48.71729276 6.08380934 49.97355405 15.546875 50.4921875 C12.70752105 59.98472481 8.51895484 66.50121092 -0.328125 71.4609375 C-10.89962276 76.59122318 -23.61827956 77.41668556 -35.03125 74.61328125 C-47.30125297 69.84685702 -55.16470653 62.01522354 -60.55078125 50.0546875 C-64.11640938 39.97142284 -63.7403409 28.27542077 -59.453125 18.4921875 C-53.89665458 7.3287333 -46.79630777 0.66870889 -35.453125 -4.5078125 C-23.83082784 -7.89690758 -10.20862143 -6.27472591 0 0 Z M-38.32421875 20.67578125 C-39.72941488 22.7300366 -39.72941488 22.7300366 -40.453125 26.4921875 C-28.573125 26.4921875 -16.693125 26.4921875 -4.453125 26.4921875 C-6.58990547 20.08184609 -8.11556572 18.09531976 -13.453125 14.4921875 C-23.12134618 10.1513535 -31.80018181 12.72961092 -38.32421875 20.67578125 Z " fill="#FDFDFD" transform="translate(306.453125,66.5078125)"/>
<path d="M0 0 C5.51575783 4.20576534 8.55262584 9.9417394 9.9375 16.6796875 C10.02391198 18.63485048 10.05520716 20.59273754 10.05102539 22.54980469 C10.05091209 24.32118805 10.05091209 24.32118805 10.05079651 26.12835693 C10.04563522 27.39826477 10.04047394 28.66817261 10.03515625 29.9765625 C10.0337413 31.28046936 10.03232635 32.58437622 10.03086853 33.92779541 C10.02705867 37.38671805 10.01724151 40.84559841 10.00616455 44.30450439 C9.99591746 47.83711169 9.99136385 51.36972586 9.98632812 54.90234375 C9.97561782 61.82814232 9.95855984 68.75391288 9.9375 75.6796875 C8.0160654 75.74403637 6.09400837 75.7899806 4.171875 75.828125 C2.56650879 75.86945557 2.56650879 75.86945557 0.92871094 75.91162109 C-3.59194876 75.56109655 -5.16201838 74.06358272 -8.0625 70.6796875 C-8.0625 70.0196875 -8.0625 69.3596875 -8.0625 68.6796875 C-8.81015625 69.10121094 -9.5578125 69.52273437 -10.328125 69.95703125 C-11.31296875 70.50488281 -12.2978125 71.05273438 -13.3125 71.6171875 C-14.28703125 72.16246094 -15.2615625 72.70773438 -16.265625 73.26953125 C-25.15641494 77.75217814 -38.98056234 77.17218527 -48.25 74.1171875 C-54.5628808 71.32891666 -59.2433853 67.40835954 -63.0625 61.6796875 C-65.31828381 55.13494631 -65.3612074 46.64194759 -63.21875 40.10546875 C-59.85795697 34.14460274 -54.77457266 30.86519047 -48.359375 28.81640625 C-43.27939598 27.54641149 -38.16809576 26.67871115 -32.98828125 25.9375 C-31.66038574 25.74728271 -31.66038574 25.74728271 -30.30566406 25.55322266 C-28.55275837 25.30896531 -26.79817727 25.07637373 -25.04199219 24.85693359 C-20.16137571 24.19944621 -16.3861697 23.21061611 -12.0625 20.6796875 C-11.64469121 18.30663172 -11.64469121 18.30663172 -12.0625 15.6796875 C-15.80218696 12.40746141 -20.20662322 11.68869655 -25.0625 11.6796875 C-30.60184858 12.27126842 -34.74463293 14.44414753 -39.30078125 17.55859375 C-42.22096372 19.41689169 -44.70203704 19.8026985 -48.07421875 19.77734375 C-49.21020508 19.77250977 -49.21020508 19.77250977 -50.36914062 19.76757812 C-51.15482422 19.75919922 -51.94050781 19.75082031 -52.75 19.7421875 C-53.54728516 19.73767578 -54.34457031 19.73316406 -55.16601562 19.72851562 C-57.13154257 19.716746 -59.09703085 19.69881098 -61.0625 19.6796875 C-60.03003066 11.17935736 -56.71465129 6.72108447 -50.28515625 1.2890625 C-36.79101934 -8.48173611 -13.84972943 -8.86592528 0 0 Z M-12.75 37.44921875 C-19.09012019 40.30869863 -25.23148901 41.58179953 -32.08398438 42.46411133 C-36.79839444 43.15099697 -39.76692353 44.17853901 -43.0625 47.6796875 C-43.55858434 51.29093712 -43.55858434 51.29093712 -42.0625 54.6796875 C-36.17900498 58.4794447 -30.18489676 58.47221981 -23.44140625 57.17578125 C-18.0422268 55.77183414 -14.63393562 54.17278392 -11.0625 49.6796875 C-9.74020811 47.03510371 -9.96572806 45.00207449 -10 42.0546875 C-10.00902344 41.05179688 -10.01804687 40.04890625 -10.02734375 39.015625 C-10.03894531 38.24476562 -10.05054688 37.47390625 -10.0625 36.6796875 C-11.2199697 36.61053526 -11.2199697 36.61053526 -12.75 37.44921875 Z " fill="#FDFDFD" transform="translate(561.0625,66.3203125)"/>
<path d="M0 0 C1.40088867 -0.02416992 1.40088867 -0.02416992 2.83007812 -0.04882812 C11.7956908 -0.05504992 19.8892796 1.23601056 26.625 7.5625 C27.42808594 8.28953125 28.23117187 9.0165625 29.05859375 9.765625 C35.14734113 17.04977783 34.58931406 24.46395443 34.48046875 33.55859375 C34.47486543 34.93863969 34.47059881 36.31869165 34.46760559 37.69874573 C34.45621456 41.31066702 34.42679805 44.92221975 34.39349365 48.53399658 C34.36266793 52.22769181 34.34907369 55.92144727 34.33398438 59.61523438 C34.30192181 66.8478233 34.25079639 74.08010978 34.1875 81.3125 C32.44218916 81.39398431 30.69576878 81.45191012 28.94921875 81.5 C27.49068481 81.55220703 27.49068481 81.55220703 26.00268555 81.60546875 C21.51802353 81.1387621 19.0598582 78.60639883 16.1875 75.3125 C14.2018224 76.29647417 12.23756772 77.28391967 10.3125 78.3828125 C0.81108524 83.09858821 -11.36748356 82.84412325 -21.52734375 80.4296875 C-28.52528688 77.76464484 -34.43454891 73.98286438 -37.8984375 67.1796875 C-40.65561088 59.91997412 -41.00905749 52.36143279 -37.90234375 45.16015625 C-33.69074552 38.02006319 -26.40259501 35.55285739 -18.8125 33.3125 C-14.39805372 32.4084086 -9.96602323 31.77817587 -5.5 31.1875 C-3.23239787 30.877291 -0.96543806 30.56234224 1.30078125 30.2421875 C2.28860596 30.11054199 3.27643066 29.97889648 4.29418945 29.84326172 C7.38775656 29.27576405 10.22937416 28.37107059 13.1875 27.3125 C13.07837047 22.62046222 13.07837047 22.62046222 10.625 18.9375 C3.73887277 17.17182635 -2.08144349 16.81101221 -8.8125 19.3125 C-11.31849464 20.81997453 -13.49752512 22.50681959 -15.8125 24.3125 C-18.57815382 25.23438461 -20.19533702 25.43035222 -23.04296875 25.41015625 C-23.84541016 25.40693359 -24.64785156 25.40371094 -25.47460938 25.40039062 C-26.30798828 25.39201172 -27.14136719 25.38363281 -28 25.375 C-28.84498047 25.37048828 -29.68996094 25.36597656 -30.56054688 25.36132812 C-32.64456155 25.34955403 -34.72853977 25.3316189 -36.8125 25.3125 C-34.60450499 15.6864165 -31.26699919 10.29282624 -22.875 5 C-15.4592014 0.59875368 -8.4231414 -0.02870873 0 0 Z M9.625 44.125 C4.33445411 46.57608488 -1.05461117 47.38566166 -6.78344727 48.18481445 C-11.08807849 48.82714269 -14.32044204 49.66358151 -17.8125 52.3125 C-19.14583333 54.64583333 -19.14583333 54.64583333 -18.8125 57.3125 C-16.09202361 60.73252746 -14.085949 62.54279812 -9.8125 63.3125 C-3.21849728 63.97959755 3.16644131 63.16015603 9.1875 60.3125 C11.84839242 58.0291255 13.61485022 55.45779956 15.1875 52.3125 C15.25746014 50.60547265 15.27190154 48.89581997 15.25 47.1875 C15.24097656 46.27742188 15.23195313 45.36734375 15.22265625 44.4296875 C15.21105469 43.73101562 15.19945312 43.03234375 15.1875 42.3125 C12.81841447 42.16134759 12.81841447 42.16134759 9.625 44.125 Z " fill="#FDFDFD" transform="translate(651.8125,60.6875)"/>
<path d="M0 0 C0.92490234 -0.01998047 1.84980469 -0.03996094 2.80273438 -0.06054688 C11.71843977 -0.05429901 19.89429511 2.43503659 26.52734375 8.59765625 C30.60216344 13.48121878 33.01790843 19.20328862 34.0625 25.4375 C23.30939756 26.04489282 15.05795574 26.40596701 5.50390625 20.78515625 C2.14723445 18.93227341 -0.1855641 18.77539367 -3.9375 19.4375 C-6.38521943 20.29371806 -8.59953955 21.29237652 -10.9375 22.4375 C-10.9375 23.7575 -10.9375 25.0775 -10.9375 26.4375 C-5.55193107 28.40273467 -0.29180621 29.84741749 5.35717773 30.81738281 C26.99672744 34.53553292 26.99672744 34.53553292 33.25 43.125 C36.45257022 49.41019399 36.91961527 56.44010979 35 63.1875 C31.53887347 71.77905744 26.08719323 75.36213706 17.8671875 79.2734375 C8.217347 83.27852451 -6.07432553 83.11730403 -15.8046875 79.47265625 C-24.48311456 75.26059916 -31.14771697 69.49772548 -34.9375 60.4375 C-34.9375 59.1175 -34.9375 57.7975 -34.9375 56.4375 C-15.00539427 55.55900367 -15.00539427 55.55900367 -6.4609375 60.31640625 C-1.05997401 62.71590551 5.30878852 62.33101198 10.85546875 60.53125 C13.20511614 59.64775161 13.20511614 59.64775161 14 57.5 C14.27146722 55.12299908 14.27146722 55.12299908 12.0625 52.4375 C9.24915719 51.63199553 6.5502983 50.9925264 3.6875 50.4375 C2.04668215 50.09467172 0.40605706 49.75091957 -1.234375 49.40625 C-2.4399707 49.15875 -2.4399707 49.15875 -3.66992188 48.90625 C-24.2222611 44.65770442 -24.2222611 44.65770442 -30.74609375 36.28515625 C-33.96938528 31.28641234 -34.33432368 26.41504611 -33.4609375 20.69921875 C-31.79732781 13.51093511 -28.40605419 9.48065643 -22.64453125 4.98046875 C-15.32419879 0.80798488 -8.32470419 -0.06354736 0 0 Z " fill="#FDFDFD" transform="translate(366.9375,60.5625)"/>
<path d="M0 0 C7.18617145 5.19926643 11.95265141 10.95039111 14.546875 19.45703125 C-7.83851605 20.41153822 -7.83851605 20.41153822 -15.42578125 15.58203125 C-19.00184146 13.59762789 -22.50595528 13.78015629 -26.453125 14.45703125 C-31.94793343 16.28863406 -35.22372685 19.79345939 -38.453125 24.45703125 C-41.37571342 30.56789796 -41.38512187 37.32445545 -39.265625 43.70703125 C-36.98090405 49.10240514 -32.83987093 53.18262741 -27.453125 55.45703125 C-21.92558127 56.35525711 -17.93568563 55.98037307 -13.203125 52.95703125 C-5.12940549 48.31921503 5.55362892 50.07356169 14.546875 50.45703125 C11.22519493 61.58785342 3.48828229 68.1155226 -6.4609375 73.5546875 C-15.68916839 77.44502013 -28.71337819 76.97397734 -37.953125 73.51953125 C-44.04553611 70.53670029 -48.81596015 66.35893295 -53.453125 61.45703125 C-53.97777344 60.90273437 -54.50242187 60.3484375 -55.04296875 59.77734375 C-61.31039628 52.11927121 -63.18532507 41.3580133 -62.8359375 31.7265625 C-61.73581176 22.33059066 -58.85588577 14.44606891 -52.453125 7.45703125 C-51.66615234 6.53470703 -51.66615234 6.53470703 -50.86328125 5.59375 C-38.2432865 -8.27339717 -15.50872343 -9.75469069 0 0 Z " fill="#FDFDFD" transform="translate(473.453125,66.54296875)"/>
<path d="M0 0 C0.67289062 -0.01160156 1.34578125 -0.02320312 2.0390625 -0.03515625 C7.11032854 -0.00578598 10.54238041 1.18101536 15 3.375 C13.7423893 7.48397287 12.22023808 11.02906986 10.05078125 14.734375 C9.4575708 15.75450684 8.86436035 16.77463867 8.25317383 17.82568359 C7.61275146 18.91445801 6.9723291 20.00323242 6.3125 21.125 C5.63965138 22.27782697 4.96737974 23.43099087 4.2956543 24.58447266 C2.89842177 26.98300454 1.49871002 29.38006573 0.09765625 31.77636719 C-2.56104536 36.32997674 -5.18353984 40.90426185 -7.80737305 45.47802734 C-10.27307529 49.76907286 -12.75637476 54.04980804 -15.24072266 58.33007812 C-16.93902371 61.26946346 -18.61685147 64.21980141 -20.29296875 67.171875 C-32.56436995 88.54582594 -32.56436995 88.54582594 -43.703125 91.9765625 C-51.96505319 93.40975412 -59.41721223 92.94337071 -67 89.375 C-66.41921503 85.67898418 -65.40940419 82.93792492 -63.55078125 79.69921875 C-63.0398291 78.80162842 -62.52887695 77.90403809 -62.00244141 76.97924805 C-61.44476074 76.01672119 -60.88708008 75.05419434 -60.3125 74.0625 C-59.73161621 73.04776611 -59.15073242 72.03303223 -58.55224609 70.98754883 C-53.8744893 62.83501236 -49.15237097 54.70682151 -44.38525391 46.60620117 C-41.56726614 41.81297011 -38.78002556 37.00842052 -36.08514404 32.14460754 C-35.10136987 30.36998024 -34.11088703 28.59925423 -33.11865234 26.8293457 C-31.869384 24.59471894 -30.63310357 22.35276009 -29.41259766 20.10229492 C-22.67557386 8.12253542 -14.36937875 -0.24774791 0 0 Z " fill="#FDFDFD" transform="translate(145,64.625)"/>
<path d="M0 0 C0.06952796 12.41318511 0.12282562 24.82632385 0.15543652 37.23966408 C0.17108856 43.00375881 0.19231868 48.76772026 0.22631836 54.53173828 C0.25892786 60.0949268 0.27685649 65.65798716 0.28463173 71.22126389 C0.29017235 73.34313347 0.30099179 75.46499608 0.31719017 77.58681107 C0.33898529 80.56014382 0.34196601 83.5329478 0.34057617 86.50634766 C0.351362 87.3824469 0.36214783 88.25854614 0.3732605 89.16119385 C0.34348826 95.05217119 -0.56262393 99.4106272 -4.75390625 103.86328125 C-5.35074219 104.34152344 -5.94757812 104.81976563 -6.5625 105.3125 C-7.46162109 106.04919922 -7.46162109 106.04919922 -8.37890625 106.80078125 C-11.89274673 109.40017649 -14.70141311 109.07960346 -19 109 C-19.06953005 96.71719908 -19.12282667 84.43444504 -19.15543652 72.15148735 C-19.1710881 66.44792603 -19.19231739 60.74449942 -19.22631836 55.04101562 C-19.25892948 49.53618166 -19.27685683 44.03147722 -19.28463173 38.52655411 C-19.29017205 36.427013 -19.30099094 34.32747893 -19.31719017 32.22799301 C-19.33898747 29.28579167 -19.34196593 26.34412465 -19.34057617 23.40185547 C-19.351362 22.53510696 -19.36214783 21.66835846 -19.3732605 20.77534485 C-19.34018431 14.2981057 -17.95033551 10.20037852 -13.5625 5.25 C-9.47305507 1.65926786 -5.57572407 0 0 0 Z " fill="#FDFDFD" transform="translate(601,33)"/>
<path d="M0 0 C-2.12981389 5.67278982 -5.11999107 10.79592187 -8.12011719 16.04614258 C-9.11248618 17.79050353 -10.0876197 19.54463323 -11.0625 21.29882812 C-16.35684392 30.5745612 -21.83614577 38.76479693 -32.29296875 42.37890625 C-40.60841781 44.28677984 -48.21184583 43.3040654 -56 40 C-55.40301584 35.76423208 -53.92710633 32.72707352 -51.796875 29.03515625 C-51.14589844 27.90529297 -50.49492188 26.77542969 -49.82421875 25.61132812 C-49.48310059 25.02810791 -49.14198242 24.4448877 -48.79052734 23.84399414 C-47.75820278 22.07654404 -46.73970924 20.30166259 -45.72265625 18.52539062 C-39.96301082 8.59594296 -34.62437224 -0.04671369 -23 -3.3125 C-14.22680089 -5.06713982 -8.15928866 -3.3597071 0 0 Z " fill="#FDFDFD" transform="translate(85,114)"/>
</svg>
