<?xml version="1.0" encoding="UTF-8"?>
<svg version="1.1" xmlns="http://www.w3.org/2000/svg" width="1024" height="550">
<path d="M0 0 C3.5075295 0.80624301 6.343831 2.12178152 9.5625 3.75 C20.36403924 8.79474123 31.94569774 11.23376571 43.59838867 13.5144043 C54.06762874 15.5775489 62.99274905 17.65097756 69.94140625 26.3515625 C73.71599479 32.22933506 72.87333563 41.41498796 71.6015625 48.09179688 C69.98044434 54.73214628 67.68424012 61.16393824 65.33203125 67.57421875 C65.0582666 68.32590332 64.78450195 69.07758789 64.50244141 69.85205078 C63.97633541 71.27906206 63.43656609 72.70114426 62.88037109 74.11669922 C61.06819249 78.94401938 60.59561796 82.83593204 61 88 C62.7698823 91.1866503 62.7698823 91.1866503 66 93 C71.77426679 94.24047937 76.25774287 92.8520365 81.2734375 89.97265625 C83 89 83 89 86 88 C87.06335646 86.17651011 87.06335646 86.17651011 88 84 C89.47578762 81.73082238 90.95889207 79.46804868 92.46484375 77.21875 C97.15341595 67.38825766 97.85679435 56.2587699 99 45.5625 C100.07818292 35.49984173 101.45581734 25.81948499 104 16 C112.47027817 16.4956655 120.68862195 17.25291441 129 19 C129.26263832 25.26830131 128.23698806 31.09337125 127.125 37.25 C121.23269252 63.43472361 121.23269252 63.43472361 125.87890625 88.4765625 C127.99699879 91.35480672 129.34785454 92.74154556 132.97265625 93.30859375 C138.80947108 93.6389795 143.27983116 92.46083525 148 89 C157.35577686 80.46154937 162.5336432 69.49716421 164 57 C164.12547579 53.85433574 164.11702438 50.7141523 164.09765625 47.56640625 C164.0962413 46.68846909 164.09482635 45.81053192 164.09336853 44.9059906 C164.08780821 42.12479118 164.07526321 39.34367474 164.0625 36.5625 C164.05747987 34.66731888 164.05291786 32.77213648 164.04882812 30.87695312 C164.03870623 26.25124504 164.0191233 21.6257145 164 17 C171.59 17 179.18 17 187 17 C187.89377528 20.57510111 188.0258444 22.24917563 187.5625 25.75 C187.46066406 26.54921875 187.35882813 27.3484375 187.25390625 28.171875 C187.12822266 29.07679688 187.12822266 29.07679688 187 30 C188.0828125 28.88625 188.0828125 28.88625 189.1875 27.75 C197.93598552 19.19592526 205.94010351 15.67558519 218.14038086 15.61499023 C225.36801377 15.77661384 230.68388183 17.8907222 235.94140625 22.8203125 C240 27.32149072 240 27.32149072 240 30 C240.68964844 29.39671875 241.37929688 28.7934375 242.08984375 28.171875 C253.84674603 18.17286346 263.63759707 14.96818935 278.94433594 15.76464844 C283.58931576 16.29644898 287.22357553 18.37853835 291 21 C291.928125 21.598125 292.85625 22.19625 293.8125 22.8125 C299.41436722 28.41436722 303.02344619 35.32525734 303.23046875 43.3203125 C303.22780962 44.92193684 303.21301307 46.52357667 303.1875 48.125 C303.18105469 48.96957764 303.17460938 49.81415527 303.16796875 50.68432617 C303.10064933 56.18611126 302.7575039 61.61628269 302.234375 67.09375 C301.00653532 79.5480483 301.00653532 79.5480483 305 91 C307.46247759 93.02274945 309.17505191 93.01945021 312.375 93.375 C316.62558454 92.93528436 319.16016249 92.14786221 322 89 C327.05331993 81.17351669 329.22442708 73.03657503 331 64 C334.38299067 47.11715096 339.69392343 33.01844002 354.4375 22.625 C365.10452736 16.12161372 375.97312179 13.36607271 388.375 16.1875 C396.84457606 18.66938628 404.48457698 22.98272482 409.0703125 30.83203125 C412.77970626 39.09713675 412.81054547 46.97710529 410.0390625 55.51171875 C406.39976686 64.22687411 398.85820099 71.1904303 390.35546875 75.12109375 C379.37781219 79.21723426 368.47198699 80.03946435 357 78 C360.46844933 84.80349677 364.12421483 89.20494393 371.4375 91.8125 C383.67354392 95.00930427 396.40701965 93.54537223 407.5625 87.64453125 C416.99439101 81.70180262 425.81942735 72.954992 428.53076172 61.8203125 C429.49221288 56.61182118 430.05465455 51.35693008 430.63330078 46.09472656 C431.32081365 40.29252076 432.23418214 34.52383419 433.125 28.75 C433.29604248 27.60063965 433.46708496 26.4512793 433.64331055 25.26708984 C433.80484619 24.20441895 433.96638184 23.14174805 434.1328125 22.046875 C434.27605957 21.09651367 434.41930664 20.14615234 434.56689453 19.16699219 C435 17 435 17 436 16 C444.39587913 15.49624725 454.0152415 16.33841383 462 19 C461.85900879 19.83958252 461.71801758 20.67916504 461.57275391 21.54418945 C453.36176164 55.91118853 453.36176164 55.91118853 458 89 C460.65144515 91.5883155 462.43239724 92.89043637 466.1796875 93.15234375 C471.40493228 92.80927212 475.02374711 91.53444701 479 88 C489.92685453 75.07399665 491.1856975 57.65838812 491.5625 41.4375 C491.62335449 39.14445113 491.68712322 36.85147762 491.75390625 34.55859375 C491.77783447 33.56142334 491.8017627 32.56425293 491.82641602 31.53686523 C492.06471869 26.68132251 492.5598707 21.84142227 493 17 C501.58 17 510.16 17 519 17 C518.5341079 25.58507974 518.03424667 34.14935679 517.24609375 42.7109375 C517.18040192 43.4250177 517.11471008 44.1390979 517.04702759 44.87481689 C516.77762392 47.77614369 516.50426067 50.67706866 516.22680664 53.57763672 C513.40963066 72.999256 513.40963066 72.999256 520.0625 90.5 C523.84847552 93.43107782 527.34883642 93.56501811 532 93 C538.71224085 91.03391453 542.54816 86.9248 546 81 C554.03164613 65.56290387 555.68288003 44.22375188 555 27 C554.37351562 26.66226562 553.74703125 26.32453125 553.1015625 25.9765625 C551.87566406 25.30753906 551.87566406 25.30753906 550.625 24.625 C549.40683594 23.96371094 549.40683594 23.96371094 548.1640625 23.2890625 C546 22 546 22 544 20 C544.57115626 15.46053412 547.3854132 12.01866959 549.875 8.3125 C550.32230469 7.62349609 550.76960937 6.93449219 551.23046875 6.22460938 C551.66746094 5.56912109 552.10445312 4.91363281 552.5546875 4.23828125 C553.14999268 3.341698 553.14999268 3.341698 553.75732422 2.42700195 C555 1 555 1 558 0 C560.6875 1.2578125 560.6875 1.2578125 564 3.125 C574.25547618 8.57021785 585.36015078 10.71613214 596.6015625 13.27734375 C597.53347412 13.49245605 598.46538574 13.70756836 599.42553711 13.92919922 C601.21291102 14.33903286 603.00270682 14.73850102 604.79516602 15.12548828 C612.68052567 16.91204518 619.82878859 19.49904852 625 26 C630.45707119 36.03396961 627.77476631 46.07746164 624.77587891 56.51611328 C622.93080156 62.42291534 620.76905275 68.24067293 618.5546875 74.01806641 C616.52241779 79.53164456 615.42358998 83.26759992 617 89 C618.22435155 91.64237846 618.22435155 91.64237846 621 93 C628.28579839 94.12000387 632.95878393 92.98720261 639 89 C641.44921875 88.14453125 641.44921875 88.14453125 644 88 C646.02734375 89.4765625 646.02734375 89.4765625 647.9375 91.625 C650.34425363 94.25096459 652.63059354 96.57784182 655.5 98.6875 C658 101 658 101 658.3984375 103.421875 C657.876427 106.79959003 656.83498012 107.54173627 654.125 109.5625 C643.45762101 117.24167736 630.49795141 120.31019674 617.49609375 118.6875 C608.17271071 117.09327267 600.17086573 113.31699956 594.3125 105.6875 C589.26702734 98.19862233 589.02584841 90.16825335 590.65234375 81.5390625 C592.76776707 72.58709945 595.58963066 63.92027186 598.71313477 55.27026367 C600.42341531 50.39379772 601.66784707 46.24259952 601 41 C599.36541991 38.19187523 597.92657234 37.97831966 594.78515625 37.05078125 C593.55667969 36.80714844 592.32820312 36.56351562 591.0625 36.3125 C589.83660156 36.06113281 588.61070312 35.80976563 587.34765625 35.55078125 C583.90762111 34.89177012 583.90762111 34.89177012 580 35 C579.93006836 35.68811768 579.86013672 36.37623535 579.78808594 37.08520508 C573.87622891 94.20305844 573.87622891 94.20305844 554.234375 110.3515625 C545.21301329 117.0071825 533.1655121 120.08053343 522 119 C510.80631837 117.1472527 503.4006463 112.32364036 495 105 C494.50113281 105.51949219 494.00226562 106.03898437 493.48828125 106.57421875 C484.59408189 115.21292944 474.37077386 118.59496256 462.125 119.1875 C452.45158717 119.00075458 445.31427301 115.93078208 438.1875 109.4375 C433 103.65714286 433 103.65714286 433 101 C432.36835937 101.42410156 431.73671875 101.84820312 431.0859375 102.28515625 C420.05921006 109.51449484 409.07319784 115.60388603 396 118 C394.95972656 118.19529297 394.95972656 118.19529297 393.8984375 118.39453125 C391.92725405 118.69872623 389.99053592 118.87373466 388 119 C387.1440625 119.06445312 386.288125 119.12890625 385.40625 119.1953125 C371.58288469 119.75270626 356.56083386 115.86613883 346 106.6875 C345.46375 106.17574219 344.9275 105.66398437 344.375 105.13671875 C343.04042861 103.78761189 343.04042861 103.78761189 341 104 C340.34 104.86625 339.68 105.7325 339 106.625 C332.25463849 114.94362367 321.94284107 118.04526785 311.66015625 119.28125 C301.6712278 119.71476588 291.43829485 116.7754765 284 110 C277.10654616 101.99469877 275.66646922 93.78612754 275.91015625 83.53125 C275.9305717 81.72526304 275.95074669 79.91927334 275.97070312 78.11328125 C276.01416962 75.30244784 276.06265682 72.49180713 276.11645508 69.68115234 C276.16500518 66.94369198 276.1946853 64.20648697 276.22265625 61.46875 C276.24441422 60.63831177 276.26617218 59.80787354 276.28858948 58.95227051 C276.34154585 52.65624862 275.43270512 46.97330626 271.3125 41.9375 C267.68982935 40.46884973 264.61879912 40.82084073 261 42 C254.90739047 45.18420333 252.53959084 50.35111202 250.04296875 56.51171875 C247.50075437 65.01433087 246.70856211 73.29557387 246.8046875 82.13671875 C246.8075174 83.14217239 246.81034729 84.14762604 246.81326294 85.18354797 C246.82433513 88.35166021 246.84941443 91.51947521 246.875 94.6875 C246.88504659 96.8535115 246.89416948 99.0195275 246.90234375 101.18554688 C246.9225186 106.45723406 246.96169125 111.72828974 247 117 C238.09 117 229.18 117 220 117 C220.0721875 114.80988281 220.144375 112.61976563 220.21875 110.36328125 C220.69565524 95.51678565 221.11830036 80.6664768 221.25 65.8125 C221.27126953 64.63405518 221.29253906 63.45561035 221.31445312 62.24145508 C221.340917 55.76300456 220.87640598 50.84801215 218 45 C215.41803565 42.53812702 213.65128472 41.15820692 210.04296875 40.8125 C205.77630316 41.07355793 202.55949532 42.29046899 199.37890625 45.2890625 C191.86118021 54.61700586 190.7182754 65.64259779 190.3671875 77.15625 C190.30484421 78.87056213 190.30484421 78.87056213 190.24124146 80.61950684 C190.11117933 84.24610918 189.99291651 87.87298448 189.875 91.5 C189.78854098 93.96877746 189.70130965 96.437528 189.61328125 98.90625 C189.39846829 104.93722517 189.19963657 110.96842717 189 117 C180.42 117 171.84 117 163 117 C163 113.37 163 109.74 163 106 C161.5975 107.051875 160.195 108.10375 158.75 109.1875 C147.39005684 117.06436635 135.98549392 120.33797427 122.1875 118.375 C115.57059002 116.93989143 110.89806285 113.98433844 106.25 109.125 C105.5075 108.42375 104.765 107.7225 104 107 C100.67168005 107.33765565 98.5810859 108.86069359 95.9375 110.8125 C89.05626822 115.52846774 81.34537917 118.38182377 73 119 C72.33871094 119.0515625 71.67742187 119.103125 70.99609375 119.15625 C61.40484206 119.56803898 51.45317235 117.23501945 44 111 C38.22062879 105.35796038 34.81667543 100.70196877 34.5690918 92.38012695 C34.53324659 80.79681362 37.34746398 70.93221193 41.4453125 60.171875 C44.09241108 53.18353475 45.77829348 47.50620819 45 40 C39.83982722 37.01253155 34.80165739 35.97458672 29 35 C28.76925781 35.95777344 28.53851563 36.91554688 28.30078125 37.90234375 C27.23605601 42.2774471 26.12221427 46.63934288 25 51 C24.82339844 51.69963867 24.64679688 52.39927734 24.46484375 53.12011719 C19.06138291 74.22363368 9.83681852 95.63742237 -9 108 C-17.99263424 113.258062 -26.18212729 115.39020737 -36.5625 115.375 C-37.52961914 115.37556396 -38.49673828 115.37612793 -39.49316406 115.37670898 C-48.13021952 115.24512547 -56.18119868 113.90940066 -64 110 C-67.69949698 109.9405106 -71.38517799 109.97877226 -75.08398438 110.0390625 C-79.84600886 110.08625019 -84.30393021 109.8046813 -89 109 C-96.05194111 120.40750464 -94.64629953 133.34303099 -94.5625 146.25 C-94.5458477 149.65382595 -94.53687211 153.0567923 -94.55223083 156.46063232 C-94.56143706 158.56647033 -94.55259621 160.67249275 -94.52259827 162.77813721 C-94.55074066 170.33771534 -95.93457752 175.93457752 -101.375 181.375 C-106.62055617 184.62224906 -110.78608 185.41804377 -116.82421875 184.53515625 C-121.67155071 183.34290404 -124.3671907 180.83804475 -127.3125 176.9375 C-134.24483197 164.87010731 -129.32797461 146.65353263 -126 134 C-125.33996085 131.89384492 -124.63642408 129.80672605 -123.92480469 127.7175293 C-120.50926347 117.44248399 -117.20700964 104.51720367 -121 94 C-125.14539024 88.84497067 -130.97858314 85.82533522 -136.89355469 83.07714844 C-139.13886275 81.92899137 -141.02541166 80.56205436 -143 79 C-142.56220133 74.15741063 -140.17803209 71.3794274 -137.0625 67.875 C-134.55781165 64.99124284 -132.12432391 62.18648586 -130 59 C-125.46574028 59.53344232 -122.70961252 61.43101626 -119 64 C-119.00444122 63.35742249 -119.00888245 62.71484497 -119.01345825 62.05279541 C-119.05767869 55.36952944 -119.08786112 48.68630498 -119.10986328 42.00292969 C-119.11992561 39.50812085 -119.13357679 37.01332382 -119.15087891 34.51855469 C-119.17511668 30.93421516 -119.18648082 27.35003147 -119.1953125 23.765625 C-119.20563507 22.64883362 -119.21595764 21.53204224 -119.22659302 20.38140869 C-119.22674408 19.34063171 -119.22689514 18.29985474 -119.22705078 17.22753906 C-119.231492 16.31264709 -119.23593323 15.39775513 -119.24050903 14.45513916 C-119 12 -119 12 -117 8 C-110.07 8.33 -103.14 8.66 -96 9 C-95.505 13.455 -95.505 13.455 -95 18 C-94.03900391 17.29423828 -94.03900391 17.29423828 -93.05859375 16.57421875 C-81.62622423 8.34495724 -72.07854879 6.01940456 -58 7 C-48.56943086 8.8352573 -40.9188155 12.95061005 -34.99609375 20.58203125 C-26.27116579 33.60567111 -23.88971675 48.71083185 -26.6484375 64.109375 C-28.64777858 73.49412991 -32.34698786 81.63503435 -37 90 C-27.76997021 88.7327623 -20.48194257 85.82961845 -14.56640625 78.3828125 C-4.4864641 63.04923466 -0.19415071 45.62011919 4 28 C3.41992188 27.82984375 2.83984375 27.6596875 2.2421875 27.484375 C-2.77784072 25.92700651 -6.92365803 24.36298213 -11 21 C-11.81420898 19.12792969 -11.81420898 19.12792969 -12 17 C-11.01196289 14.98535156 -11.01196289 14.98535156 -9.47265625 12.890625 C-8.92802734 12.13652344 -8.38339844 11.38242187 -7.82226562 10.60546875 C-7.24154297 9.82816406 -6.66082031 9.05085938 -6.0625 8.25 C-5.48564453 7.45722656 -4.90878906 6.66445313 -4.31445312 5.84765625 C-2.88739607 3.88987549 -1.44913352 1.94146531 0 0 Z M-87 40 C-96.31962244 51.33887397 -96.56250238 65.078066 -96 79 C-94.41925436 79.81752303 -92.83528777 80.62881997 -91.25 81.4375 C-90.36828125 81.88996094 -89.4865625 82.34242188 -88.578125 82.80859375 C-82.42928598 85.65010269 -75.26561333 86.21041335 -68.71484375 84.3515625 C-60.97884061 80.86365357 -56.96576183 74.72457346 -53.76171875 67.11328125 C-50.58304978 58.29451246 -51.11424721 49.04874451 -54.6796875 40.421875 C-57.17882064 35.83766628 -60.14113193 32.89982358 -65.171875 31.31640625 C-74.08008244 29.82658535 -81.02391034 33.58449198 -87 40 Z M361.5 47.0625 C358.70034864 51.17245331 357 53.9293948 357 59 C367.56220444 59.46655136 375.63007242 59.6181975 384.5 53.1875 C386.62515758 50.08831186 386.93446341 47.73558574 387 44 C385.65437601 41.05244268 384.91445456 39.45722728 382 38 C373.77252417 36.97156552 366.51232128 40.50604063 361.5 47.0625 Z " fill="#FFFFFF" transform="translate(256,310)"/>
<path d="M0 0 C3.5924198 3.09115192 5.30318999 5.71247674 6.00390625 10.453125 C6.25048288 15.13012679 5.69097021 18.86188169 3.07421875 22.80078125 C-0.13833758 26.30292013 -3.87684092 28.14764998 -8.62109375 28.46875 C-14.82298554 28.05040991 -19.03249954 25.89650053 -23.1875 21.1875 C-25.09575939 16.31083713 -25.31366365 11.20295635 -23.5859375 6.21484375 C-21.146213 1.54366392 -18.22280183 -0.48323717 -13.5 -2.4375 C-8.41541766 -3.01859512 -4.48735049 -2.28600874 0 0 Z " fill="#FFFFFF" transform="translate(388.3125,275.6875)"/>
<path d="M0 0 C3.73113266 1.62223159 6.32658788 3.94467186 9 7 C10.44932983 11.34798948 10.51669065 15.45595345 10 20 C7.38679161 25.13308791 4.46062759 28.1797908 -1 30 C-6.61875724 30.3684431 -10.15711379 30.19190228 -15 27 C-19.12712836 22.53823961 -20.31579995 19.17205257 -20.21484375 13.05859375 C-19.73807026 8.49023683 -17.77437114 5.69882274 -14.4375 2.6875 C-9.70461837 -0.58911036 -5.65381661 -0.50017967 0 0 Z " fill="#FFFFFF" transform="translate(931,369)"/>
<path d="M0 0 C4.13149552 2.2863616 6.36138017 4.93811586 7.8125 9.4375 C8.70805074 14.759336 7.70494618 18.89222743 4.8125 23.4375 C1.88307571 26.82464684 -0.13223271 28.24068477 -4.67578125 28.67578125 C-10.69843024 28.8340528 -14.55170697 28.72560855 -19.1875 24.4375 C-22.78813912 20.47679697 -22.69659255 16.21936908 -22.53125 11.09375 C-21.94738323 6.5820522 -20.14231207 3.98102735 -16.609375 1.19140625 C-11.08734349 -2.40288904 -6.06388418 -2.5939949 0 0 Z " fill="#FFFFFF" transform="translate(105.1875,345.5625)"/>
</svg>
